<svg width="208" height="32" viewBox="0 0 208 32" fill="none" xmlns="http://www.w3.org/2000/svg">
<g clip-path="url(#clip0_2_267)">
<path d="M26.1406 17.0396C26.1325 16.5467 26.098 16.0545 26.0373 15.5653C25.8876 14.141 25.5034 12.7517 24.9003 11.4543L24.6654 11.0006V10.925H24.5339H24.1204C22.9718 11.0304 21.8396 11.2715 20.7471 11.6433L20.4089 11.7661V11.4826C20.1937 10.087 19.8218 8.72053 19.3001 7.40937C19.0028 6.67971 18.6543 5.97226 18.2571 5.29242C17.4333 3.95132 16.4417 2.72214 15.3066 1.63501C14.6935 1.09432 14.033 0.61038 13.3334 0.189056L13.1737 0.0850981L13.0985 0.0378418L13.0233 0.0850981L12.873 0.189056C11.2394 1.32278 9.83618 2.75981 8.73859 4.42296C7.88716 5.66671 7.18091 7.00492 6.6338 8.41114C6.2376 9.41779 5.96008 10.4677 5.80692 11.5393C5.80692 11.6433 5.80692 11.7378 5.80692 11.8417C5.80692 11.9457 5.46865 11.7 4.86729 11.5299L4.65117 11.4732C3.64273 11.2082 2.61548 11.0218 1.57856 10.9156L1.2215 11.7945C1.11814 12.0308 1.01478 12.267 0.920819 12.5127C0.24739 14.322 -0.028297 16.2565 0.112732 18.1831C0.190101 19.3542 0.404567 20.5121 0.751684 21.6326C1.67457 24.6342 3.46358 27.2921 5.89149 29.2688C6.68565 29.9442 7.56374 30.5128 8.50368 30.9605C9.97571 31.6494 11.5783 32.0104 13.2019 32.0189H13.4274C15.1821 31.9024 16.8923 31.4128 18.445 30.5824C18.8021 30.384 19.1591 30.1477 19.1685 30.1477C19.65 29.8338 20.1113 29.4897 20.5498 29.1176C21.8601 28.0159 22.9836 26.7073 23.8761 25.2428C24.7854 23.7841 25.4579 22.189 25.8681 20.5175C26.098 19.3735 26.1895 18.2057 26.1406 17.0396ZM13.1549 25.7059C13.1455 27.1081 12.9107 28.4996 12.4595 29.8264C9.79143 29.3464 7.34544 28.022 5.47805 26.0461C4.2813 24.6876 3.37036 23.0995 2.80009 21.3775C2.28343 19.8944 2.05068 18.3263 2.11415 16.7561C2.18466 15.5762 2.41869 14.4119 2.80948 13.2971V13.2404H2.93164C3.76239 13.3895 4.57724 13.6173 5.36529 13.9209L5.6002 14.0154C6.61565 14.4958 7.5635 15.1091 8.41911 15.8394C9.76595 16.9558 10.8614 18.3474 11.6327 19.9221C11.8112 20.3001 11.9615 20.697 12.0555 20.9333C12.4698 21.8578 12.7848 22.824 12.9951 23.8158C13.1078 24.4393 13.1612 25.0722 13.1549 25.7059ZM13.0891 18.1453C12.6088 17.333 12.0586 16.5645 11.4447 15.8488C11.0851 15.4186 10.6991 15.0115 10.289 14.6297C9.89113 14.2396 9.47069 13.8736 9.02987 13.5334C8.63522 13.2499 8.22178 12.9853 7.80834 12.7396C7.87955 12.0778 7.99253 11.4212 8.14661 10.7738C8.54947 9.04755 9.24563 7.40419 10.2044 5.91617C10.7851 5.04066 11.4491 4.22406 12.187 3.47789C12.4971 3.16602 12.826 2.85414 13.1267 2.53282C14.6266 3.7216 15.8675 5.20776 16.7725 6.89904C17.3126 7.94368 17.732 9.04716 18.0222 10.1879C18.236 11.0126 18.3836 11.8533 18.4638 12.7018C17.2924 13.3812 16.2203 14.2208 15.2784 15.1967C14.4332 16.0873 13.698 17.0773 13.0891 18.1453ZM22.1848 23.8819C20.508 26.6934 17.8139 28.7425 14.6677 29.5996C14.9052 28.7817 15.0657 27.9432 15.1469 27.0951C15.226 26.2307 15.226 25.3607 15.1469 24.4962C15.0216 23.1106 14.7054 21.7493 14.2073 20.4513C14.6326 19.5043 15.1655 18.61 15.7952 17.7862C16.4116 16.9741 17.1213 16.2382 17.9094 15.5937C18.7303 14.9354 19.6339 14.3888 20.5968 13.9681C21.478 13.587 22.4027 13.3171 23.3499 13.1648C23.5139 13.6836 23.6519 14.2104 23.7634 14.7431C23.9607 15.9622 24.0546 16.9073 24.064 17.0018C24.1137 19.4299 23.4608 21.8202 22.1848 23.8819Z" fill="#F49879"/>
<path d="M42.1239 8.02364H45.8824C47.3509 7.95727 48.8088 8.3042 50.092 9.02542C50.6286 9.38477 51.0643 9.8769 51.3572 10.4545C51.6501 11.0321 51.7904 11.6758 51.7646 12.3237C51.7884 13.0676 51.562 13.7979 51.1221 14.3964C50.6822 14.9949 50.0544 15.4267 49.3403 15.622C51.3793 16.2363 52.4223 17.5121 52.4223 19.4023C52.4353 20.2383 52.195 21.0586 51.7335 21.754C51.2719 22.4495 50.6109 22.9873 49.8383 23.2959C48.5023 23.7667 47.0904 23.9814 45.6757 23.9291H42.0957V8.02364H42.1239ZM48.7013 10.5281C47.6668 10.0299 46.517 9.82406 45.375 9.93268H44.285V14.8565H45.7979C48.1751 14.8565 49.5564 14.1004 49.5564 12.4466C49.6003 12.0798 49.5449 11.708 49.396 11.3703C49.2472 11.0326 49.0104 10.7416 48.7107 10.5281H48.7013ZM46.8221 16.7655H44.285V22.0485H45.4878C46.6271 22.1227 47.7693 21.9586 48.8423 21.5665C49.2468 21.389 49.5873 21.0907 49.8176 20.712C50.0478 20.3333 50.1568 19.8926 50.1296 19.4495C50.139 17.8618 48.9832 16.775 46.8315 16.775L46.8221 16.7655Z" fill="white"/>
<path d="M68.5276 24.2409C66.9055 24.2484 65.3176 23.7715 63.9653 22.8705C62.6129 21.9695 61.5569 20.6851 60.9309 19.1799C60.305 17.6747 60.1374 16.0166 60.4493 14.4155C60.7612 12.8144 61.5386 11.3425 62.6829 10.1862C63.8273 9.02987 65.2872 8.24123 66.8776 7.92017C68.4681 7.59912 70.1175 7.7601 71.6168 8.38271C73.1162 9.00533 74.3981 10.0616 75.3001 11.4176C76.2021 12.7736 76.6836 14.3684 76.6836 15.9999C76.6962 17.0825 76.494 18.1566 76.089 19.1597C75.6841 20.1627 75.0844 21.0746 74.325 21.8418C73.5656 22.6091 72.6618 23.2165 71.6664 23.6284C70.671 24.0403 69.604 24.2485 68.5276 24.2409ZM68.5276 9.71525C65.1543 9.71525 62.6831 12.4748 62.6831 15.9999C62.6831 19.525 65.1543 22.2847 68.5276 22.2847C71.9009 22.2847 74.3721 19.525 74.3721 15.9999C74.3721 12.4748 71.9009 9.7058 68.5276 9.7058V9.71525Z" fill="white"/>
<path d="M96.0684 23.967L87.3767 12.078V23.967H85.2062V8.02368H87.0854L95.8053 19.9126V8.02368H97.9758V23.967H96.0965H96.0684Z" fill="white"/>
<path d="M109.919 17.2003V24.0142H107.748V8.02368H115.791V9.97998H109.928V15.1968H115.791V17.2003H109.928H109.919Z" fill="white"/>
<path d="M124.361 23.967V8.02368H126.531V23.967H124.361Z" fill="white"/>
<path d="M144.817 23.967L140.062 17.2003H138.427V23.9386H136.257V8.02368H140.955C143.379 8.02368 146.367 9.29953 146.367 12.5978C146.377 13.6921 145.989 14.7522 145.276 15.5788C144.563 16.4055 143.574 16.9418 142.496 17.0869L147.523 23.967H144.807H144.817ZM140.851 9.97998H138.427V15.3102H140.4C142.505 15.3102 144.065 14.5352 144.065 12.7112C144.065 11.0574 142.778 9.97998 140.851 9.97998Z" fill="white"/>
<path d="M155.491 23.967V8.02368H165.009V9.97998H157.671V14.762H165.009V16.7183H157.671V22.0012H165.009V23.9575H155.491V23.967Z" fill="white"/>
</g>
<path d="M197.591 14.8449L206.803 5.12231H204.206L197.087 14.2526L189.323 5.12231H186.898H185.699H185.38L194.841 16.2248L187.874 23.7735L185.38 26.3759H187.976L195.498 16.9936L203.498 26.3759H203.855H206.656H207.434L197.591 14.8449Z" fill="url(#paint0_radial_2_267)"/>
<defs>
<radialGradient id="paint0_radial_2_267" cx="0" cy="0" r="1" gradientUnits="userSpaceOnUse" gradientTransform="translate(196.407 5.12231) rotate(90) scale(21.2536 22.0543)">
<stop stop-color="#EB9038"/>
<stop offset="0.515625" stop-color="#F3C3CF"/>
<stop offset="1" stop-color="#8DC4F3"/>
</radialGradient>
<clipPath id="clip0_2_267">
<rect width="165" height="32" fill="white"/>
</clipPath>
</defs>
</svg>
